REM DIRINDEX 1\2\6,1\2\7,1\2\8,1\2\9,1\3\10,1\3\11,1\4\12,1\4\13,1\4\14,1\5\15,1\5\16,1\5\17
REM DIRNAME cjc020,folder01,folder02,folder03,folder04,folder05,folder06,folder07,folder08,folder09,folder10,folder11,folder12,folder13,folder14,folder15,folder16
TITLE ""
FILE "1900_2_sec12_1116_1132.mp3" MP3
  TRACK 01 AUDIO
    TITLE "0:"
    INDEX 01 00:00:00
  TRACK 02 AUDIO
    TITLE "13:cjc020_4364"
    INDEX 01 00:00:17
  TRACK 03 AUDIO
    TITLE "0:"
    INDEX 01 00:01:34
  TRACK 04 AUDIO
    TITLE "14:cjc020_4365"
    INDEX 01 00:01:36
  TRACK 05 AUDIO
    TITLE "0:"
    INDEX 01 00:03:51
  TRACK 06 AUDIO
    TITLE "13:cjc020_4366"
    INDEX 01 00:04:33
  TRACK 07 AUDIO
    TITLE "0:"
    INDEX 01 00:05:48
  TRACK 08 AUDIO
    TITLE "14:cjc020_4367"
    INDEX 01 00:05:56
  TRACK 09 AUDIO
    TITLE "0:"
    INDEX 01 00:06:73
  TRACK 10 AUDIO
    TITLE "13:cjc020_4368"
    INDEX 01 00:07:56
  TRACK 11 AUDIO
    TITLE "0:"
    INDEX 01 00:08:52
  TRACK 12 AUDIO
    TITLE "14:cjc020_4369"
    INDEX 01 00:08:56
  TRACK 13 AUDIO
    TITLE "0:"
    INDEX 01 00:11:07
  TRACK 14 AUDIO
    TITLE "13:cjc020_4370"
    INDEX 01 00:11:62
  TRACK 15 AUDIO
    TITLE "0:"
    INDEX 01 00:12:73
  TRACK 16 AUDIO
    TITLE "14:cjc020_4371"
    INDEX 01 00:13:00
  TRACK 17 AUDIO
    TITLE "0:"
    INDEX 01 00:16:42
  TRACK 18 AUDIO
    TITLE "13:cjc020_4372"
    INDEX 01 00:17:21
  TRACK 19 AUDIO
    TITLE "0:"
    INDEX 01 00:18:44
  TRACK 20 AUDIO
    TITLE "14:cjc020_4373"
    INDEX 01 00:18:48
  TRACK 21 AUDIO
    TITLE "0:"
    INDEX 01 00:19:48
  TRACK 22 AUDIO
    TITLE "13:cjc020_4374"
    INDEX 01 00:20:32
  TRACK 23 AUDIO
    TITLE "0:"
    INDEX 01 00:21:39
  TRACK 24 AUDIO
    TITLE "14:cjc020_4375"
    INDEX 01 00:21:41
  TRACK 25 AUDIO
    TITLE "0:"
    INDEX 01 00:24:22
  TRACK 26 AUDIO
    TITLE "13:cjc020_4376"
    INDEX 01 00:25:03
  TRACK 27 AUDIO
    TITLE "0:"
    INDEX 01 00:25:72
  TRACK 28 AUDIO
    TITLE "14:cjc020_4377"
    INDEX 01 00:26:03
  TRACK 29 AUDIO
    TITLE "0:"
    INDEX 01 00:29:21
  TRACK 30 AUDIO
    TITLE "13:cjc020_4378"
    INDEX 01 00:30:01
  TRACK 31 AUDIO
    TITLE "0:"
    INDEX 01 00:31:06
  TRACK 32 AUDIO
    TITLE "14:cjc020_4379"
    INDEX 01 00:31:12
  TRACK 33 AUDIO
    TITLE "0:"
    INDEX 01 00:33:64
  TRACK 34 AUDIO
    TITLE "13:cjc020_4380"
    INDEX 01 00:34:42
  TRACK 35 AUDIO
    TITLE "0:"
    INDEX 01 00:35:66
  TRACK 36 AUDIO
    TITLE "14:cjc020_4381"
    INDEX 01 00:35:68
  TRACK 37 AUDIO
    TITLE "0:"
    INDEX 01 00:39:70
  TRACK 38 AUDIO
    TITLE "13:cjc020_4382"
    INDEX 01 00:40:50
  TRACK 39 AUDIO
    TITLE "0:"
    INDEX 01 00:41:73
  TRACK 40 AUDIO
    TITLE "14:cjc020_4383"
    INDEX 01 00:42:00
  TRACK 41 AUDIO
    TITLE "0:"
    INDEX 01 00:44:42
  TRACK 42 AUDIO
    TITLE "13:cjc020_4384"
    INDEX 01 00:45:22
  TRACK 43 AUDIO
    TITLE "0:"
    INDEX 01 00:46:49
  TRACK 44 AUDIO
    TITLE "14:cjc020_4385"
    INDEX 01 00:46:53
  TRACK 45 AUDIO
    TITLE "0:"
    INDEX 01 00:49:33
  TRACK 46 AUDIO
    TITLE "13:cjc020_4386"
    INDEX 01 00:50:13
  TRACK 47 AUDIO
    TITLE "0:"
    INDEX 01 00:51:18
  TRACK 48 AUDIO
    TITLE "14:cjc020_4387"
    INDEX 01 00:51:24
  TRACK 49 AUDIO
    TITLE "0:"
    INDEX 01 00:52:57
  TRACK 50 AUDIO
    TITLE "13:cjc020_4388"
    INDEX 01 00:53:39
  TRACK 51 AUDIO
    TITLE "0:"
    INDEX 01 00:54:30
  TRACK 52 AUDIO
    TITLE "14:cjc020_4389"
    INDEX 01 00:54:50
  TRACK 53 AUDIO
    TITLE "0:"
    INDEX 01 00:57:27
  TRACK 54 AUDIO
    TITLE "13:cjc020_4390"
    INDEX 01 00:58:13
  TRACK 55 AUDIO
    TITLE "0:"
    INDEX 01 00:59:22
  TRACK 56 AUDIO
    TITLE "14:cjc020_4391"
    INDEX 01 00:59:24
  TRACK 57 AUDIO
    TITLE "0:"
    INDEX 01 01:03:00
  TRACK 58 AUDIO
    TITLE "13:cjc020_4392"
    INDEX 01 01:03:55
  TRACK 59 AUDIO
    TITLE "0:"
    INDEX 01 01:04:54
  TRACK 60 AUDIO
    TITLE "14:cjc020_4393"
    INDEX 01 01:04:62
  TRACK 61 AUDIO
    TITLE "0:"
    INDEX 01 01:08:72
  TRACK 62 AUDIO
    TITLE "13:cjc020_4394"
    INDEX 01 01:09:54
  TRACK 63 AUDIO
    TITLE "0:"
    INDEX 01 01:10:69
  TRACK 64 AUDIO
    TITLE "14:cjc020_4395"
    INDEX 01 01:10:73
  TRACK 65 AUDIO
    TITLE "0:"
    INDEX 01 01:13:16
  TRACK 66 AUDIO
    TITLE "13:cjc020_4396"
    INDEX 01 01:13:73
  TRACK 67 AUDIO
    TITLE "0:"
    INDEX 01 01:15:19
  TRACK 68 AUDIO
    TITLE "14:cjc020_4397"
    INDEX 01 01:15:21
  TRACK 69 AUDIO
    TITLE "0:"
    INDEX 01 01:21:31
